<svg width="23" height="80" viewBox="0 0 23 80" fill="none" xmlns="http://www.w3.org/2000/svg">
<path d="M0.599998 64.1286C0.599998 63.9153 0.706665 63.8086 0.919998 63.8086H2.296C2.50933 63.8086 2.616 63.9153 2.616 64.1286L2.616 70.4006C2.616 70.486 2.65867 70.5286 2.744 70.5286H22.68C22.8933 70.5286 23 70.6353 23 70.8486V72.4806C23 72.694 22.8933 72.8006 22.68 72.8006H2.744C2.65867 72.8006 2.616 72.8433 2.616 72.9286V78.9446C2.616 79.158 2.50933 79.2646 2.296 79.2646H0.919998C0.706665 79.2646 0.599998 79.158 0.599998 78.9446L0.599998 64.1286ZM23 59.0939C23 59.3072 22.8933 59.4139 22.68 59.4139H0.919998C0.706665 59.4139 0.599998 59.3072 0.599998 59.0939V57.4619C0.599998 57.2485 0.706665 57.1419 0.919998 57.1419H22.68C22.8933 57.1419 23 57.2485 23 57.4619V59.0939ZM0.599998 37.6286C0.599998 37.4153 0.706665 37.3086 0.919998 37.3086H2.296C2.50933 37.3086 2.616 37.4153 2.616 37.6286V43.9006C2.616 43.986 2.65867 44.0286 2.744 44.0286H22.68C22.8933 44.0286 23 44.1353 23 44.3486V45.9806C23 46.194 22.8933 46.3006 22.68 46.3006H2.744C2.65867 46.3006 2.616 46.3433 2.616 46.4286V52.4446C2.616 52.658 2.50933 52.7646 2.296 52.7646H0.919998C0.706665 52.7646 0.599998 52.658 0.599998 52.4446V37.6286ZM23 32.5939C23 32.8072 22.8933 32.9139 22.68 32.9139H0.919998C0.706665 32.9139 0.599998 32.8072 0.599998 32.5939V30.9619C0.599998 30.7485 0.706665 30.6419 0.919998 30.6419H20.888C20.9733 30.6419 21.016 30.5992 21.016 30.5139V19.2179C21.016 19.0045 21.1227 18.8979 21.336 18.8979H22.68C22.8933 18.8979 23 19.0045 23 19.2179L23 32.5939ZM2.264 0.230373C2.47733 0.230373 2.584 0.337041 2.584 0.550375L2.584 12.3264C2.584 12.4117 2.62667 12.4544 2.712 12.4544H10.616C10.7013 12.4544 10.744 12.4117 10.744 12.3264V4.07037C10.744 3.85704 10.8507 3.75037 11.064 3.75037H12.408C12.6213 3.75037 12.728 3.85704 12.728 4.07037V12.3264C12.728 12.4117 12.7707 12.4544 12.856 12.4544H20.888C20.9733 12.4544 21.016 12.4117 21.016 12.3264V0.550375C21.016 0.337041 21.1227 0.230373 21.336 0.230373H22.68C22.8933 0.230373 23 0.337041 23 0.550375V14.4064C23 14.6197 22.8933 14.7264 22.68 14.7264H0.919998C0.706665 14.7264 0.599998 14.6197 0.599998 14.4064L0.599998 0.550375C0.599998 0.337041 0.706665 0.230373 0.919998 0.230373H2.264Z" fill="#D8C3FF"/>
</svg>
