<svg width="24" height="181" viewBox="0 0 24 181" fill="none" xmlns="http://www.w3.org/2000/svg">
<path d="M23 180.297C23 180.51 22.8933 180.617 22.68 180.617H0.919998C0.706665 180.617 0.599998 180.51 0.599998 180.297V178.665C0.599998 178.452 0.706665 178.345 0.919998 178.345H11.768C11.8107 178.345 11.8427 178.324 11.864 178.281C11.8853 178.238 11.8747 178.206 11.832 178.185L0.759998 168.073C0.653332 167.988 0.599998 167.86 0.599998 167.689V165.833C0.599998 165.705 0.642665 165.63 0.727999 165.609C0.813332 165.566 0.898666 165.588 0.983999 165.673L9.848 173.513C9.89067 173.556 9.95467 173.556 10.04 173.513L22.616 165.001L22.776 164.937C22.9253 164.937 23 165.033 23 165.225V167.081C23 167.252 22.936 167.38 22.808 167.465L11.672 175.049C11.6293 175.07 11.608 175.102 11.608 175.145C11.608 175.188 11.6187 175.22 11.64 175.241L14.872 178.281C14.9147 178.324 14.968 178.345 15.032 178.345H22.68C22.8933 178.345 23 178.452 23 178.665V180.297ZM0.919998 147.71C0.706665 147.71 0.599998 147.604 0.599998 147.39V145.758C0.599998 145.545 0.706665 145.438 0.919998 145.438H22.68C22.8933 145.438 23 145.545 23 145.758V147.358C23 147.508 22.9253 147.636 22.776 147.742L5.016 158.654C4.952 158.676 4.93067 158.708 4.952 158.75C4.952 158.793 4.984 158.814 5.048 158.814L22.68 158.782C22.8933 158.782 23 158.889 23 159.102V160.734C23 160.948 22.8933 161.054 22.68 161.054H0.919998C0.706665 161.054 0.599998 160.948 0.599998 160.734V159.134C0.599998 158.985 0.674665 158.857 0.823999 158.75L18.584 147.838C18.648 147.817 18.68 147.785 18.68 147.742C18.6587 147.7 18.616 147.678 18.552 147.678L0.919998 147.71ZM23.256 132.517C23.256 134.032 22.9467 135.365 22.328 136.517C21.7093 137.669 20.8453 138.565 19.736 139.205C18.6053 139.824 17.304 140.133 15.832 140.133H7.768C6.296 140.133 5.00533 139.824 3.896 139.205C2.76533 138.565 1.89067 137.669 1.272 136.517C0.653333 135.365 0.344 134.032 0.344 132.517C0.344 131.003 0.653333 129.669 1.272 128.517C1.89067 127.344 2.76533 126.448 3.896 125.829C5.00533 125.189 6.296 124.869 7.768 124.869H15.832C17.304 124.869 18.6053 125.189 19.736 125.829C20.8453 126.448 21.7093 127.344 22.328 128.517C22.9467 129.669 23.256 131.003 23.256 132.517ZM21.304 132.517C21.304 130.896 20.8133 129.595 19.832 128.613C18.8507 127.632 17.5493 127.141 15.928 127.141H7.736C6.11467 127.141 4.81333 127.632 3.832 128.613C2.82933 129.595 2.328 130.896 2.328 132.517C2.328 134.117 2.82933 135.408 3.832 136.389C4.81333 137.371 6.11467 137.861 7.736 137.861H15.928C17.5493 137.861 18.8507 137.371 19.832 136.389C20.8133 135.408 21.304 134.117 21.304 132.517ZM23 115.358C23 115.529 22.9147 115.646 22.744 115.71L0.952 121.854L0.855999 121.886C0.685332 121.886 0.599998 121.779 0.599998 121.566V119.87C0.599998 119.678 0.685332 119.561 0.855999 119.518L18.392 114.654C18.4347 114.633 18.456 114.611 18.456 114.59C18.456 114.547 18.4347 114.515 18.392 114.494L0.887999 109.982C0.695999 109.939 0.599998 109.822 0.599998 109.63V107.902C0.599998 107.71 0.695999 107.593 0.887999 107.55L18.392 102.846C18.4347 102.825 18.456 102.803 18.456 102.782C18.456 102.739 18.4347 102.707 18.392 102.686L0.855999 97.822C0.685332 97.7793 0.599998 97.662 0.599998 97.47V95.838C0.599998 95.7313 0.631999 95.6567 0.695999 95.614C0.76 95.55 0.845333 95.5287 0.952 95.55L22.744 101.598C22.9147 101.641 23 101.758 23 101.95V103.646C23 103.838 22.904 103.955 22.712 103.998L4.792 108.67C4.74933 108.691 4.728 108.723 4.728 108.766C4.728 108.787 4.74933 108.809 4.792 108.83L22.712 113.406C22.904 113.427 23 113.545 23 113.758V115.358ZM23 91.3282C23 91.5416 22.8933 91.6482 22.68 91.6482H0.919998C0.706665 91.6482 0.599998 91.5416 0.599998 91.3282V89.6962C0.599998 89.4829 0.706665 89.3762 0.919998 89.3762H20.888C20.9733 89.3762 21.016 89.3336 21.016 89.2482V77.9522C21.016 77.7389 21.1227 77.6322 21.336 77.6322H22.68C22.8933 77.6322 23 77.7389 23 77.9522V91.3282ZM2.264 58.9647C2.47733 58.9647 2.584 59.0714 2.584 59.2847V71.0607C2.584 71.1461 2.62667 71.1887 2.712 71.1887H10.616C10.7013 71.1887 10.744 71.1461 10.744 71.0607V62.8047C10.744 62.5914 10.8507 62.4847 11.064 62.4847H12.408C12.6213 62.4847 12.728 62.5914 12.728 62.8047V71.0607C12.728 71.1461 12.7707 71.1887 12.856 71.1887H20.888C20.9733 71.1887 21.016 71.1461 21.016 71.0607V59.2847C21.016 59.0714 21.1227 58.9647 21.336 58.9647H22.68C22.8933 58.9647 23 59.0714 23 59.2847V73.1407C23 73.3541 22.8933 73.4607 22.68 73.4607H0.919998C0.706665 73.4607 0.599998 73.3541 0.599998 73.1407V59.2847C0.599998 59.0714 0.706665 58.9647 0.919998 58.9647H2.264ZM23 53.7657C23 53.9791 22.8933 54.0857 22.68 54.0857H0.919998C0.706665 54.0857 0.599998 53.9791 0.599998 53.7657L0.599998 46.2137C0.599998 44.1017 1.15467 42.4271 2.264 41.1897C3.37333 39.9311 4.87733 39.3017 6.776 39.3017H16.824C18.7227 39.3017 20.2267 39.9311 21.336 41.1897C22.4453 42.4271 23 44.1017 23 46.2137V53.7657ZM20.888 51.8137C20.9733 51.8137 21.016 51.7711 21.016 51.6857V46.1177C21.016 44.7311 20.6107 43.6324 19.8 42.8217C18.9893 41.9897 17.9013 41.5737 16.536 41.5737H7.096C5.70933 41.5737 4.61067 41.9791 3.8 42.7897C2.98933 43.6004 2.584 44.7097 2.584 46.1177V51.6857C2.584 51.7711 2.62667 51.8137 2.712 51.8137H20.888ZM23.256 27.551C23.256 29.0443 22.968 30.3563 22.392 31.487C21.7947 32.6177 20.9627 33.503 19.896 34.143C18.8293 34.7617 17.6027 35.071 16.216 35.071H7.384C5.99733 35.071 4.77067 34.7617 3.704 34.143C2.63733 33.503 1.816 32.6177 1.24 31.487C0.642666 30.3563 0.344 29.0443 0.344 27.551C0.344 26.079 0.631999 24.7777 1.208 23.647C1.784 22.495 2.59467 21.6097 3.64 20.991C4.664 20.3723 5.82667 20.063 7.128 20.063H7.544C7.75733 20.063 7.864 20.1697 7.864 20.383V22.015C7.864 22.2283 7.75733 22.335 7.544 22.335H7.16C5.73067 22.335 4.568 22.815 3.672 23.775C2.776 24.7137 2.328 25.9723 2.328 27.551C2.328 29.1297 2.78667 30.399 3.704 31.359C4.62133 32.319 5.82667 32.799 7.32 32.799H16.28C17.7733 32.799 18.9787 32.3083 19.896 31.327C20.8133 30.3457 21.272 29.055 21.272 27.455C21.272 25.8977 20.8453 24.6603 19.992 23.743C19.1387 22.8043 17.9973 22.335 16.568 22.335H13.656C13.5707 22.335 13.528 22.3777 13.528 22.463V27.167C13.528 27.3803 13.4213 27.487 13.208 27.487H11.864C11.6507 27.487 11.544 27.3803 11.544 27.167V20.383C11.544 20.1697 11.6507 20.063 11.864 20.063H15.992C18.2747 20.063 20.056 20.7457 21.336 22.111C22.616 23.455 23.256 25.2683 23.256 27.551ZM2.264 0.245998C2.47733 0.245998 2.584 0.352666 2.584 0.566V12.342C2.584 12.4273 2.62667 12.47 2.712 12.47H10.616C10.7013 12.47 10.744 12.4273 10.744 12.342V4.086C10.744 3.87267 10.8507 3.766 11.064 3.766H12.408C12.6213 3.766 12.728 3.87267 12.728 4.086V12.342C12.728 12.4273 12.7707 12.47 12.856 12.47H20.888C20.9733 12.47 21.016 12.4273 21.016 12.342V0.566C21.016 0.352666 21.1227 0.245998 21.336 0.245998H22.68C22.8933 0.245998 23 0.352666 23 0.566L23 14.422C23 14.6353 22.8933 14.742 22.68 14.742H0.919998C0.706665 14.742 0.599998 14.6353 0.599998 14.422V0.566C0.599998 0.352666 0.706665 0.245998 0.919998 0.245998H2.264Z" fill="#D8C3FF"/>
</svg>
