<svg width="24" height="114" viewBox="0 0 24 114" fill="none" xmlns="http://www.w3.org/2000/svg">
<path d="M23.288 106.067C23.288 107.56 23 108.872 22.424 110.003C21.8267 111.133 20.9947 112.019 19.928 112.659C18.84 113.277 17.592 113.587 16.184 113.587H7.384C5.99733 113.587 4.77067 113.277 3.704 112.659C2.63733 112.019 1.816 111.133 1.24 110.003C0.642666 108.872 0.344 107.56 0.344 106.067C0.344 104.573 0.631999 103.261 1.208 102.131C1.784 101 2.59467 100.125 3.64 99.5066C4.68533 98.8666 5.89067 98.5466 7.256 98.5466C7.36267 98.5466 7.448 98.5786 7.512 98.6426C7.576 98.7066 7.608 98.7813 7.608 98.8666L7.704 100.499C7.704 100.712 7.608 100.819 7.416 100.819H7.32C5.80533 100.819 4.6 101.299 3.704 102.259C2.78667 103.219 2.328 104.488 2.328 106.067C2.328 107.645 2.78667 108.915 3.704 109.875C4.62133 110.835 5.82667 111.315 7.32 111.315H16.28C17.7733 111.315 18.9787 110.835 19.896 109.875C20.8133 108.915 21.272 107.645 21.272 106.067C21.272 104.488 20.824 103.219 19.928 102.259C19.0107 101.299 17.7947 100.819 16.28 100.819H16.216C16.024 100.819 15.928 100.712 15.928 100.499L16.024 98.8666C16.024 98.6533 16.12 98.5466 16.312 98.5466C17.6987 98.5466 18.9253 98.8666 19.992 99.5066C21.0373 100.125 21.848 101 22.424 102.131C23 103.261 23.288 104.573 23.288 106.067ZM23 80.1964C23 80.3884 22.9147 80.5164 22.744 80.5804L18.712 81.8604C18.648 81.8817 18.616 81.9244 18.616 81.9884L18.616 91.5564C18.616 91.6204 18.648 91.663 18.712 91.6844L22.744 92.9644C22.9147 93.0284 23 93.1564 23 93.3484V95.0764C23 95.311 22.8827 95.3964 22.648 95.3324L0.855999 88.2604C0.685332 88.1964 0.599998 88.0684 0.599998 87.8764V85.7004C0.599998 85.5084 0.685332 85.3804 0.855999 85.3164L22.648 78.2124L22.776 78.1804C22.9253 78.1804 23 78.2764 23 78.4684V80.1964ZM16.6 91.0444C16.6427 91.0657 16.6853 91.0657 16.728 91.0444C16.7493 91.0017 16.76 90.959 16.76 90.9164L16.76 82.6604C16.76 82.6177 16.7493 82.5857 16.728 82.5644C16.6853 82.5217 16.6427 82.511 16.6 82.5324L3.544 86.6924C3.50133 86.7137 3.48 86.7457 3.48 86.7884C3.48 86.831 3.50133 86.863 3.544 86.8844L16.6 91.0444ZM23 60.9829C23 61.1749 22.9253 61.3029 22.776 61.3669L12.856 66.0709C12.792 66.0922 12.76 66.1349 12.76 66.1989V71.6389C12.76 71.7242 12.8027 71.7669 12.888 71.7669H22.68C22.8933 71.7669 23 71.8735 23 72.0869V73.7189C23 73.9322 22.8933 74.0389 22.68 74.0389H0.919998C0.706665 74.0389 0.599998 73.9322 0.599998 73.7189L0.599998 65.4309C0.599998 63.5962 1.176 62.1135 2.328 60.9829C3.45867 59.8522 4.94133 59.2869 6.776 59.2869C8.26933 59.2869 9.53867 59.6922 10.584 60.5029C11.6293 61.3135 12.3013 62.4122 12.6 63.7989C12.6427 63.8842 12.696 63.9055 12.76 63.8629L22.616 59.0629C22.6587 59.0415 22.712 59.0309 22.776 59.0309C22.9253 59.0309 23 59.1162 23 59.2869V60.9829ZM2.584 71.6389C2.584 71.7242 2.62667 71.7669 2.712 71.7669H10.808C10.8933 71.7669 10.936 71.7242 10.936 71.6389V65.6869C10.936 64.4495 10.552 63.4469 9.784 62.6789C9.016 61.9109 8.01333 61.5269 6.776 61.5269C5.53867 61.5269 4.536 61.9109 3.768 62.6789C2.97867 63.4469 2.584 64.4495 2.584 65.6869V71.6389ZM2.264 39.9491C2.47733 39.9491 2.584 40.0558 2.584 40.2691L2.584 52.0451C2.584 52.1305 2.62667 52.1731 2.712 52.1731H10.616C10.7013 52.1731 10.744 52.1305 10.744 52.0451V43.7891C10.744 43.5758 10.8507 43.4691 11.064 43.4691H12.408C12.6213 43.4691 12.728 43.5758 12.728 43.7891V52.0451C12.728 52.1305 12.7707 52.1731 12.856 52.1731H20.888C20.9733 52.1731 21.016 52.1305 21.016 52.0451V40.2691C21.016 40.0558 21.1227 39.9491 21.336 39.9491H22.68C22.8933 39.9491 23 40.0558 23 40.2691V54.1251C23 54.3385 22.8933 54.4451 22.68 54.4451H0.919998C0.706665 54.4451 0.599998 54.3385 0.599998 54.1251L0.599998 40.2691C0.599998 40.0558 0.706665 39.9491 0.919998 39.9491H2.264ZM2.264 20.5741C2.47733 20.5741 2.584 20.6808 2.584 20.8941V32.6701C2.584 32.7555 2.62667 32.7981 2.712 32.7981H10.616C10.7013 32.7981 10.744 32.7555 10.744 32.6701L10.744 24.4141C10.744 24.2008 10.8507 24.0941 11.064 24.0941H12.408C12.6213 24.0941 12.728 24.2008 12.728 24.4141L12.728 32.6701C12.728 32.7555 12.7707 32.7981 12.856 32.7981H20.888C20.9733 32.7981 21.016 32.7555 21.016 32.6701L21.016 20.8941C21.016 20.6808 21.1227 20.5741 21.336 20.5741H22.68C22.8933 20.5741 23 20.6808 23 20.8941V34.7501C23 34.9635 22.8933 35.0701 22.68 35.0701H0.919998C0.706665 35.0701 0.599998 34.9635 0.599998 34.7501V20.8941C0.599998 20.6808 0.706665 20.5741 0.919998 20.5741H2.264ZM23 2.63912C23 2.83112 22.9253 2.95912 22.776 3.02312L12.856 7.72712C12.792 7.74846 12.76 7.79112 12.76 7.85512V13.2951C12.76 13.3805 12.8027 13.4231 12.888 13.4231H22.68C22.8933 13.4231 23 13.5298 23 13.7431V15.3751C23 15.5885 22.8933 15.6951 22.68 15.6951H0.919998C0.706665 15.6951 0.599998 15.5885 0.599998 15.3751L0.599998 7.08712C0.599998 5.25246 1.176 3.76979 2.328 2.63912C3.45867 1.50846 4.94133 0.943125 6.776 0.943125C8.26933 0.943125 9.53867 1.34846 10.584 2.15912C11.6293 2.96979 12.3013 4.06846 12.6 5.45512C12.6427 5.54046 12.696 5.56179 12.76 5.51912L22.616 0.719124C22.6587 0.697791 22.712 0.687124 22.776 0.687124C22.9253 0.687124 23 0.772458 23 0.943125V2.63912ZM2.584 13.2951C2.584 13.3805 2.62667 13.4231 2.712 13.4231H10.808C10.8933 13.4231 10.936 13.3805 10.936 13.2951V7.34312C10.936 6.10579 10.552 5.10312 9.784 4.33512C9.016 3.56712 8.01333 3.18312 6.776 3.18312C5.53867 3.18312 4.536 3.56712 3.768 4.33512C2.97867 5.10312 2.584 6.10579 2.584 7.34312V13.2951Z" fill="#D8C3FF"/>
</svg>
